<mxfile host="app.diagrams.net" modified="2020-10-07T12:26:52.544Z" agent="5.0 (Windows NT 10.0; Win64; x64) AppleWebKit/537.36 (KHTML, like Gecko) Chrome/81.0.4044.138 Safari/537.36" etag="AYqcBUlAGh1HENOJPLgs" version="13.7.7" type="github">
  <diagram id="zIHu5WAfBQBPe3v0qIKO" name="Page-1">
    <mxGraphModel dx="1422" dy="713" grid="1" gridSize="10" guides="1" tooltips="1" connect="1" arrows="1" fold="1" page="1" pageScale="1" pageWidth="827" pageHeight="1169" math="0" shadow="0">
      <root>
        <mxCell id="0" />
        <mxCell id="1" parent="0" />
        <mxCell id="vqyjznMClHonxGOb8CZH-1" value="程序的 CPU 执行时间 = 指令数 x CPI x 时钟周期时间" style="rounded=1;whiteSpace=wrap;html=1;fontSize=16;fillColor=#dae8fc;fontStyle=1;strokeColor=none;sketch=0;gradientColor=#66B2FF;" vertex="1" parent="1">
          <mxGeometry x="230" y="270" width="440" height="60" as="geometry" />
        </mxCell>
      </root>
    </mxGraphModel>
  </diagram>
</mxfile>
